<svg width="26" height="26" viewBox="0 0 26 26" fill="none" xmlns="http://www.w3.org/2000/svg">
<path d="M13 24.375C6.71836 24.375 1.625 19.2816 1.625 13C1.625 6.71836 6.71836 1.625 13 1.625C19.2816 1.625 24.375 6.71836 24.375 13C24.375 19.2816 19.2816 24.375 13 24.375ZM13 3.55469C7.78477 3.55469 3.55469 7.78477 3.55469 13C3.55469 18.2152 7.78477 22.4453 13 22.4453C18.2152 22.4453 22.4453 18.2152 22.4453 13C22.4453 7.78477 18.2152 3.55469 13 3.55469ZM13.1422 17.0803C14.4879 17.0803 15.402 16.2221 15.5035 14.9627C15.5111 14.8561 15.6 14.7748 15.7066 14.7748H17.1463C17.2123 14.7748 17.2656 14.8281 17.2656 14.8941C17.2656 17.0955 15.5289 18.6367 13.1346 18.6367C10.3441 18.6367 8.73438 16.7527 8.73438 13.6398V12.3119C8.73438 9.22188 10.3441 7.36328 13.1346 7.36328C15.5213 7.36328 17.2656 8.85625 17.2656 10.9535C17.2656 11.0195 17.2123 11.0729 17.1463 11.0729H15.7041C15.5975 11.0729 15.5111 10.9916 15.501 10.8875C15.3943 9.71699 14.4828 8.91211 13.1396 8.91211C11.4816 8.91211 10.5473 10.1283 10.5473 12.3043V13.6398C10.5498 15.8488 11.4867 17.0803 13.1422 17.0803Z" fill="white"/>
</svg>
